<?xml version="1.0" standalone="no"?><!DOCTYPE svg PUBLIC "-//W3C//DTD SVG 1.1//EN" "http://www.w3.org/Graphics/SVG/1.1/DTD/svg11.dtd"><svg class="icon" width="32px" height="32.00px" viewBox="0 0 1024 1024" version="1.1" xmlns="http://www.w3.org/2000/svg"><path d="M725.333333 972.8H298.666667c-110.933333 0-204.8-89.6-204.8-204.8V298.666667c0-110.933333 89.6-204.8 204.8-204.8h426.666666c110.933333 0 204.8 89.6 204.8 204.8v469.333333c0 110.933333-93.866667 204.8-204.8 204.8zM298.666667 162.133333C221.866667 162.133333 162.133333 221.866667 162.133333 298.666667v469.333333c0 76.8 64 136.533333 136.533334 136.533333h426.666666c76.8 0 136.533333-64 136.533334-136.533333V298.666667c0-76.8-64-136.533333-136.533334-136.533334H298.666667z" fill="#222222" /><path d="M332.8 405.333333h405.333333c17.066667 0 34.133333 12.8 34.133334 34.133334 0 17.066667-12.8 34.133333-34.133334 34.133333H332.8c-21.333333-4.266667-34.133333-17.066667-34.133333-38.4 0-17.066667 12.8-29.866667 34.133333-29.866667zM460.8 640h277.333333c17.066667 0 34.133333 12.8 34.133334 34.133333 0 17.066667-12.8 34.133333-34.133334 34.133334h-277.333333c-17.066667 0-34.133333-12.8-34.133333-34.133334s12.8-34.133333 34.133333-34.133333z" fill="#FF5353" /></svg>