<?xml version="1.0" standalone="no"?><!DOCTYPE svg PUBLIC "-//W3C//DTD SVG 1.1//EN" "http://www.w3.org/Graphics/SVG/1.1/DTD/svg11.dtd"><svg class="icon" width="32px" height="32.00px" viewBox="0 0 1024 1024" version="1.1" xmlns="http://www.w3.org/2000/svg"><path fill="#707070" d="M527.165427 475.445617m25.859906 25.859905l155.15943 155.159431q25.859905 25.859905 0 51.71981l0 0q-25.859905 25.859905-51.71981 0l-155.159431-155.15943q-25.859905-25.859905 0-51.719811l0 0q25.859905-25.859905 51.719811 0ZM475.428571 182.857143m36.571429 0l0 0q36.571429 0 36.571429 36.571428l0 292.571429q0 36.571429-36.571429 36.571429l0 0q-36.571429 0-36.571429-36.571429l0-292.571429q0-36.571429 36.571429-36.571428ZM512 950.857143c242.358857 0 438.857143-196.498286 438.857143-438.857143S754.358857 73.142857 512 73.142857 73.142857 269.641143 73.142857 512s196.498286 438.857143 438.857143 438.857143z m0 73.142857C229.229714 1024 0 794.770286 0 512S229.229714 0 512 0s512 229.229714 512 512-229.229714 512-512 512z" /></svg>