<?xml version="1.0" standalone="no"?><!DOCTYPE svg PUBLIC "-//W3C//DTD SVG 1.1//EN" "http://www.w3.org/Graphics/SVG/1.1/DTD/svg11.dtd"><svg class="icon" width="32px" height="32.00px" viewBox="0 0 1024 1024" version="1.1" xmlns="http://www.w3.org/2000/svg"><path d="M512 992c-14.933333 0-29.866667-4.266667-42.666667-10.666667L128 782.933333c-25.6-14.933333-42.666667-42.666667-42.666667-74.666666V315.733333c0-29.866667 17.066667-57.6 42.666667-74.666666l341.333333-196.266667c25.6-14.933333 59.733333-14.933333 85.333334 0l341.333333 196.266667c25.6 14.933333 42.666667 42.666667 42.666667 74.666666v394.666667c0 29.866667-17.066667 57.6-42.666667 74.666667L554.666667 981.333333c-12.8 6.4-27.733333 10.666667-42.666667 10.666667z m0-874.666667L170.666667 315.733333v394.666667l341.333333 196.266667 341.333333-196.266667V315.733333l21.333334-38.4-21.333334 36.266667-341.333333-196.266667z" fill="#333333" /><path d="M512 704c-106.666667 0-192-85.333333-192-192s85.333333-192 192-192 192 85.333333 192 192-85.333333 192-192 192z m0-298.666667c-59.733333 0-106.666667 46.933333-106.666667 106.666667s46.933333 106.666667 106.666667 106.666667 106.666667-46.933333 106.666667-106.666667-46.933333-106.666667-106.666667-106.666667z" fill="#f5a771" /></svg>