<?xml version="1.0" standalone="no"?><!DOCTYPE svg PUBLIC "-//W3C//DTD SVG 1.1//EN" "http://www.w3.org/Graphics/SVG/1.1/DTD/svg11.dtd"><svg class="icon" width="32px" height="32.00px" viewBox="0 0 1024 1024" version="1.1" xmlns="http://www.w3.org/2000/svg"><path fill="#707070" d="M701.824 357.312a29.056 29.056 0 0 1 10.048-10.112l21.248-13.12c47.616-30.336 55.68-43.52 55.68-79.04l-0.256-12.352-0.832-10.688c-4.288-34.688-24.64-42.752-113.152-64.32a70.272 70.272 0 0 1-38.976-24.832l-20.032-25.792c-17.984-20.992-43.136-31.616-97.92-31.744-55.296 0-80.64 10.624-98.752 31.744l-20.032 25.792c-11.136 12.928-22.4 20.8-38.976 24.832-88.448 21.568-108.8 29.632-113.088 64.32l-0.832 10.688-0.256 12.352c0 35.52 8.064 48.64 55.68 79.04l21.248 13.12a29.312 29.312 0 0 1 8.64 8 27.904 27.904 0 0 1-8.128 47.552l-1.28 0.448c-2.688 1.6-4.48 2.56-8.576 4.48l-14.784 7.04c-135.68 68.672-208.128 202.112-208.128 346.56 0 76.672 30.016 115.264 99.328 136.128 44.992 13.568 93.12 19.072 191.232 20.992l53.504 0.704 83.2 0.256 83.328-0.256 53.44-0.64c98.176-1.984 146.304-7.488 191.36-21.056 69.248-20.864 99.2-59.52 99.2-136.128 0-144.448-72.32-277.888-208.064-346.56l-14.784-7.04a71.424 71.424 0 0 1-8.576-4.48l-1.344-0.448a27.904 27.904 0 0 1-10.368-45.44z m78.208 15.04c147.2 81.28 225.28 229.952 225.28 388.928 0 101.44-47.104 161.92-141.312 190.336-59.84 17.984-119.168 23.232-260.096 24.32l-86.016 0.32a32.384 32.384 0 0 1-0.384 0l-86.016-0.256c-140.928-1.152-200.32-6.4-260.096-24.384C77.12 923.264 30.08 862.72 30.08 761.28c0-158.784 77.824-307.328 224.64-388.608-53.568-36.544-69.312-62.976-69.312-117.632 0-88.32 30.528-111.104 159.36-142.464 2.688-0.64 5.12-2.56 10.432-9.472l9.6-12.8 7.232-8.96C401.856 46.464 444.16 28.608 516.416 28.352a32.576 32.576 0 0 1 1.6 0c72.256 0.256 114.56 18.112 144.384 52.864l7.168 9.088 9.6 12.736c5.376 6.912 7.808 8.832 10.432 9.472 128.832 31.36 159.36 54.208 159.36 142.464 0 54.528-15.616 80.96-68.928 117.312z m-189.632 218.24h79.552a28.416 28.416 0 0 1 0 56.896h-122.24l0.064 1.664v55.232h122.176a28.416 28.416 0 1 1 0 56.896H547.776v55.168a30.08 30.08 0 0 1-60.16 0v-55.168h-122.24a28.416 28.416 0 0 1 0-56.96h122.24v-55.168-1.664h-122.24a28.416 28.416 0 0 1 0-56.96h79.616L372.288 521.984a27.648 27.648 0 0 1 0-40.256 31.04 31.04 0 0 1 42.56 0L517.76 578.816l102.848-97.152a31.04 31.04 0 0 1 43.712 1.152 27.648 27.648 0 0 1-1.152 39.04L590.4 590.656z" /></svg>