<?xml version="1.0" standalone="no"?><!DOCTYPE svg PUBLIC "-//W3C//DTD SVG 1.1//EN" "http://www.w3.org/Graphics/SVG/1.1/DTD/svg11.dtd"><svg t="1589165671230" class="icon" viewBox="0 0 1024 1024" version="1.1" xmlns="http://www.w3.org/2000/svg" p-id="832" data-spm-anchor-id="a313x.7781069.0.i0" xmlns:xlink="http://www.w3.org/1999/xlink" width="200" height="200"><defs><style type="text/css"></style></defs><path d="M511.575104 936.471369c-18.695436 0-36.965975-7.223237-52.262241-21.669709l-0.424896-0.424897L350.539419 809.00249H172.082988c-46.738589 0-84.979253-38.240664-84.979254-84.979253V169.958506c0-46.738589 38.240664-84.979253 84.979254-84.979253h679.834024c46.738589 0 84.979253 38.240664 84.979254 84.979253v554.064731c0 46.738589-38.240664 84.979253-84.979254 84.979253h-178.456431l-110.048133 106.224066c-15.296266 14.446473-33.566805 21.244813-51.837344 21.244813z m-8.922822-67.983402c5.948548 5.523651 11.472199 5.523651 17.420747 0l127.46888-123.219917h203.950207c11.897095 0 21.244813-9.347718 21.244813-21.244813V169.958506c0-11.897095-9.347718-21.244813-21.244813-21.244813H172.082988c-11.897095 0-21.244813 9.347718-21.244814 21.244813v554.064731c0 11.897095 9.347718 21.244813 21.244814 21.244813h204.375103l126.194191 123.219917z" p-id="833" fill="#1296db"></path></svg>