<?xml version="1.0" standalone="no"?><!DOCTYPE svg PUBLIC "-//W3C//DTD SVG 1.1//EN" "http://www.w3.org/Graphics/SVG/1.1/DTD/svg11.dtd"><svg class="icon" width="32px" height="30.48px" viewBox="0 0 1075 1024" version="1.1" xmlns="http://www.w3.org/2000/svg"><path d="M450.866708 1023.763511a189.19138 189.19138 0 0 1-142.721248-61.132465L47.297845 672.813501c-74.021127-82.771229-59.122306-216.742375 32.872002-299.750093l366.558299-330.138958A148.042255 148.042255 0 0 1 543.925218 4.140217L980.484327 0.001655H981.430284a94.59569 94.59569 0 0 1 70.2373 30.625355 94.59569 94.59569 0 0 1 23.057699 74.021128l-49.662737 433.721238a148.1605 148.1605 0 0 1-48.835025 92.822021l-366.558299 330.257203a238.026405 238.026405 0 0 1-154.900442 62.5514zM981.430284 70.948423l-436.440865 4.138561a78.277933 78.277933 0 0 0-50.845183 20.692808L127.467692 425.682261C64.443314 482.676164 52.02763 572.187335 99.916698 625.397411l260.965859 289.699301a119.781793 119.781793 0 0 0 92.349043 37.720031 167.197882 167.197882 0 0 0 108.548554-44.341729l366.558299-330.257203a78.277933 78.277933 0 0 0 25.89557-48.125558l49.662737-433.721238A21.757009 21.757009 0 0 0 981.430284 70.948423zM796.259221 374.009365a126.403491 126.403491 0 1 1 84.544898-32.399024 125.930512 125.930512 0 0 1-84.544898 32.399024z m0-181.74197a55.456723 55.456723 0 1 0 41.26737 18.327915 55.220234 55.220234 0 0 0-41.26737-18.446159z" fill="#333333" /><path d="M168.221511 581.194238m37.259982-6.590058l482.516769-85.341249q37.259982-6.590058 43.85004 30.669924l0.020594 0.116437q6.590058 37.259982-30.669924 43.85004l-482.516769 85.34125q-37.259982 6.590058-43.85004-30.669925l-0.020594-0.116437q-6.590058-37.259982 30.669924-43.85004Z" fill="#FF554D" /><path d="M462.927658 498.757431a109.96749 109.96749 0 1 1 80.288092-34.645671 109.731 109.731 0 0 1-80.288092 34.645671z m0-161.049162a51.081673 51.081673 0 1 0 37.247053 86.082078 51.081673 51.081673 0 0 0-37.247053-86.082078zM472.97845 857.393341a109.96749 109.96749 0 1 1 80.288092-34.763916 109.258022 109.258022 0 0 1-76.622509 34.645671z m0-161.167407h-1.655424a51.199917 51.199917 0 1 0 38.902477 86.082078A51.199917 51.199917 0 0 0 472.97845 696.344179z" fill="#FF554D" /></svg>