<?xml version="1.0" standalone="no"?><!DOCTYPE svg PUBLIC "-//W3C//DTD SVG 1.1//EN" "http://www.w3.org/Graphics/SVG/1.1/DTD/svg11.dtd"><svg class="icon" width="32px" height="32.00px" viewBox="0 0 1024 1024" version="1.1" xmlns="http://www.w3.org/2000/svg"><path fill="#707070" d="M512 16.3584C238.26432 16.3584 16.3584 238.26432 16.3584 512c0 273.73056 221.90592 495.6416 495.6416 495.6416s495.6416-221.91104 495.6416-495.6416c0-273.73568-221.90592-495.6416-495.6416-495.6416z m0 928.8704c-238.88384 0-433.23392-194.34496-433.23392-433.2288 0-238.88896 194.34496-433.23392 433.23392-433.23392S945.2288 273.11104 945.2288 512c0 238.88384-194.34496 433.2288-433.2288 433.2288z"  /><path fill="#707070" d="M692.48 294.79424a32.5376 32.5376 0 0 0-23.168 9.6L509.34784 464.3584 349.37856 304.38912c-6.19008-6.18496-14.41792-9.59488-23.168-9.59488s-16.9728 3.40992-23.15776 9.59488c-6.19008 6.18496-9.6 14.4128-9.6 23.168s3.40992 16.97792 9.6 23.168l127.20128 127.20128H360.93952a32.79872 32.79872 0 0 0-32.76288 32.76288 32.79872 32.79872 0 0 0 32.76288 32.75776h115.97312v56.62208H371.76832a32.79872 32.79872 0 0 0-32.75776 32.75776 32.79872 32.79872 0 0 0 32.75776 32.76288h105.14432v109.07648a32.79872 32.79872 0 0 0 32.76288 32.76288 32.79872 32.79872 0 0 0 32.75776-32.76288v-109.07648h105.1392a32.79872 32.79872 0 0 0 32.75776-32.76288 32.79872 32.79872 0 0 0-32.75776-32.75776h-105.1392v-56.62208h115.968a32.79872 32.79872 0 0 0 32.76288-32.75776 32.79872 32.79872 0 0 0-32.76288-32.76288H588.4416l127.2064-127.20128a32.80384 32.80384 0 0 0 0-46.336 32.56832 32.56832 0 0 0-23.168-9.59488z"  /></svg>