<?xml version="1.0" standalone="no"?><!DOCTYPE svg PUBLIC "-//W3C//DTD SVG 1.1//EN" "http://www.w3.org/Graphics/SVG/1.1/DTD/svg11.dtd"><svg class="icon" width="32px" height="32.00px" viewBox="0 0 1024 1024" version="1.1" xmlns="http://www.w3.org/2000/svg"><path fill="#707070" d="M677.12 430.08L558.08 256c-21.76-32-70.4-32-92.16 0l-119.04 172.8c-14.08 20.48-39.68 29.44-62.72 21.76L148.48 409.6c-39.68-12.8-79.36 23.04-71.68 64l79.36 418.56c7.68 39.68 42.24 67.84 81.92 67.84h547.84c40.96 0 75.52-28.16 81.92-67.84L947.2 473.6c7.68-40.96-30.72-76.8-71.68-64l-136.96 42.24c-23.04 6.4-47.36-2.56-61.44-21.76z"  /><path fill="#707070" d="M512 120.32m-56.32 0a56.32 56.32 0 1 0 112.64 0 56.32 56.32 0 1 0-112.64 0Z"  /><path fill="#707070" d="M75.52 307.2m-56.32 0a56.32 56.32 0 1 0 112.64 0 56.32 56.32 0 1 0-112.64 0Z"  /><path fill="#707070" d="M948.48 307.2m-56.32 0a56.32 56.32 0 1 0 112.64 0 56.32 56.32 0 1 0-112.64 0Z"  /></svg>