<?xml version="1.0" standalone="no"?><!DOCTYPE svg PUBLIC "-//W3C//DTD SVG 1.1//EN" "http://www.w3.org/Graphics/SVG/1.1/DTD/svg11.dtd"><svg class="icon" width="32px" height="32.00px" viewBox="0 0 1024 1024" version="1.1" xmlns="http://www.w3.org/2000/svg"><path d="M503.239111 1016.661333c230.456889 0 417.109333-186.595556 417.109333-416.597333 0-229.944889-321.422222 35.84-367.388444-599.438222-219.818667 118.158222-375.921778 466.318222-333.710222 732.615111 42.268444 266.296889 283.989333 283.420444 283.989333 283.420444z" fill="#FF0A0A" /><path d="M503.239111 1016.661333c230.456889 0 417.109333-186.595556 417.109333-416.597333-221.923556 98.986667-698.424889 64.170667-774.826666-254.520889C119.182222 473.372444 101.546667 436.451556 86.072889 600.064c0 229.944889 186.595556 416.597333 417.109333 416.597333z" fill="#FF480A" /><path d="M503.239111 1016.661333c230.456889 0 417.109333-186.595556 417.109333-416.597333 0-188.188444-82.375111-236.316444-139.036444-343.267556-39.082667 461.482667-418.702222 539.022222-685.568 434.176a417.564444 417.564444 0 0 0 407.495111 325.688889z" fill="#FF810A" /></svg>